# xmcd
#
# Track frame offsets:
#	150
#	16188
#	41142
#	63811
#	82356
#
# Disc length: 1368 seconds
#
# Revision: 1
# Processed by: cddbd v1.5.2PL0 Copyright (c) Steve Scherf et al.
# Submitted via: FairStars CD Ripper 1.90
#
DISCID=3a055605
DTITLE=Rainbreakers - Rise Up
DYEAR=2016
DGENRE=Blues
TTITLE0=On My Own
TTITLE1=Rise Up
TTITLE2=Waiting on You
TTITLE3=Perception
TTITLE4=Living Free
EXTD=
EXTT0=
EXTT1=
EXTT2=
EXTT3=
EXTT4=
PLAYORDER=
